solid wall_0F_1
  facet normal 1.265721e-02 -9.999199e-01 0.000000e+00
    outer loop
      vertex 1.600000e+00 -2.250000e+00 2.200000e+00
      vertex -2.350000e+00 -2.300000e+00 2.200000e+00
      vertex -2.350000e+00 -2.300000e+00 0.000000e+00
    endloop
  endfacet
  facet normal 1.265721e-02 -9.999199e-01 0.000000e+00
    outer loop
      vertex -2.350000e+00 -2.300000e+00 0.000000e+00
      vertex 1.600000e+00 -2.250000e+00 0.000000e+00
      vertex 1.600000e+00 -2.250000e+00 2.200000e+00
    endloop
  endfacet
endsolid wall_0F_1
solid wall_0F_2
  facet normal 9.317080e-01 -3.632082e-01 0.000000e+00
    outer loop
      vertex 2.750000e+00 7.000000e-01 2.200000e+00
      vertex 1.600000e+00 -2.250000e+00 2.200000e+00
      vertex 1.600000e+00 -2.250000e+00 0.000000e+00
    endloop
  endfacet
  facet normal 9.317080e-01 -3.632082e-01 0.000000e+00
    outer loop
      vertex 1.600000e+00 -2.250000e+00 0.000000e+00
      vertex 2.750000e+00 7.000000e-01 0.000000e+00
      vertex 2.750000e+00 7.000000e-01 2.200000e+00
    endloop
  endfacet
endsolid wall_0F_2
solid wall_0F_3
  facet normal 3.939193e-01 9.191450e-01 0.000000e+00
    outer loop
      vertex 2.750000e+00 7.000000e-01 2.200000e+00
      vertex 2.750000e+00 7.000000e-01 0.000000e+00
      vertex -4.000000e-01 2.050000e+00 2.200000e+00
    endloop
  endfacet
  facet normal 3.939193e-01 9.191450e-01 -0.000000e+00
    outer loop
      vertex -4.000000e-01 2.050000e+00 0.000000e+00
      vertex -4.000000e-01 2.050000e+00 2.200000e+00
      vertex 2.750000e+00 7.000000e-01 0.000000e+00
    endloop
  endfacet
endsolid wall_0F_3
solid wall_0F_4
  facet normal -4.395529e-01 8.982167e-01 0.000000e+00
    outer loop
      vertex -2.750000e+00 9.000000e-01 2.200000e+00
      vertex -4.000000e-01 2.050000e+00 2.200000e+00
      vertex -4.000000e-01 2.050000e+00 0.000000e+00
    endloop
  endfacet
  facet normal -4.395529e-01 8.982167e-01 0.000000e+00
    outer loop
      vertex -4.000000e-01 2.050000e+00 0.000000e+00
      vertex -2.750000e+00 9.000000e-01 0.000000e+00
      vertex -2.750000e+00 9.000000e-01 2.200000e+00
    endloop
  endfacet
endsolid wall_0F_4
solid wall_0F_5
  facet normal -9.922779e-01 -1.240347e-01 0.000000e+00
    outer loop
      vertex -2.350000e+00 -2.300000e+00 2.200000e+00
      vertex -2.750000e+00 9.000000e-01 2.200000e+00
      vertex -2.750000e+00 9.000000e-01 0.000000e+00
    endloop
  endfacet
  facet normal -9.922779e-01 -1.240347e-01 0.000000e+00
    outer loop
      vertex -2.750000e+00 9.000000e-01 0.000000e+00
      vertex -2.350000e+00 -2.300000e+00 0.000000e+00
      vertex -2.350000e+00 -2.300000e+00 2.200000e+00
    endloop
  endfacet
endsolid wall_0F_5
solid Vent_0F-1
  facet normal 0.000000e+00 0.000000e+00 -1.000000e+00
    outer loop
      vertex -1.111054e+00 -1.034955e+00 0.000000e+00
      vertex -1.611054e+00 -1.034955e+00 0.000000e+00
      vertex -1.611054e+00 -5.349546e-01 0.000000e+00
    endloop
  endfacet
  facet normal 0.000000e+00 0.000000e+00 -1.000000e+00
    outer loop
      vertex -1.611054e+00 -5.349546e-01 0.000000e+00
      vertex -1.111054e+00 -5.349546e-01 0.000000e+00
      vertex -1.111054e+00 -1.034955e+00 0.000000e+00
    endloop
  endfacet
endsolid Vent_0F-1
solid Vent_0F-2
  facet normal 0.000000e+00 0.000000e+00 -1.000000e+00
    outer loop
      vertex 6.546120e-01 -5.402881e-01 0.000000e+00
      vertex 1.546120e-01 -5.402881e-01 0.000000e+00
      vertex 1.546120e-01 -4.028808e-02 0.000000e+00
    endloop
  endfacet
  facet normal 0.000000e+00 0.000000e+00 -1.000000e+00
    outer loop
      vertex 1.546120e-01 -4.028808e-02 0.000000e+00
      vertex 6.546120e-01 -4.028808e-02 0.000000e+00
      vertex 6.546120e-01 -5.402881e-01 0.000000e+00
    endloop
  endfacet
endsolid Vent_0F-2
solid floor_0F
  facet normal 0.000000e+00 0.000000e+00 -1.000000e+00
    outer loop
      vertex -1.111054e+00 -5.349546e-01 0.000000e+00
      vertex 1.546120e-01 -4.028808e-02 0.000000e+00
      vertex 1.546120e-01 -5.402881e-01 0.000000e+00
    endloop
  endfacet
  facet normal -0.000000e+00 0.000000e+00 -1.000000e+00
    outer loop
      vertex -1.111054e+00 -1.034955e+00 0.000000e+00
      vertex -2.350000e+00 -2.300000e+00 0.000000e+00
      vertex -1.611054e+00 -1.034955e+00 0.000000e+00
    endloop
  endfacet
  facet normal 0.000000e+00 0.000000e+00 -1.000000e+00
    outer loop
      vertex -2.750000e+00 9.000000e-01 0.000000e+00
      vertex -1.611054e+00 -1.034955e+00 0.000000e+00
      vertex -2.350000e+00 -2.300000e+00 0.000000e+00
    endloop
  endfacet
  facet normal 0.000000e+00 0.000000e+00 -1.000000e+00
    outer loop
      vertex -1.111054e+00 -5.349546e-01 0.000000e+00
      vertex -4.000000e-01 2.050000e+00 0.000000e+00
      vertex 1.546120e-01 -4.028808e-02 0.000000e+00
    endloop
  endfacet
  facet normal 0.000000e+00 0.000000e+00 -1.000000e+00
    outer loop
      vertex 6.546120e-01 -4.028808e-02 0.000000e+00
      vertex 1.546120e-01 -4.028808e-02 0.000000e+00
      vertex -4.000000e-01 2.050000e+00 0.000000e+00
    endloop
  endfacet
  facet normal 0.000000e+00 0.000000e+00 -1.000000e+00
    outer loop
      vertex -2.350000e+00 -2.300000e+00 0.000000e+00
      vertex -1.111054e+00 -1.034955e+00 0.000000e+00
      vertex 1.600000e+00 -2.250000e+00 0.000000e+00
    endloop
  endfacet
  facet normal 0.000000e+00 0.000000e+00 -1.000000e+00
    outer loop
      vertex -1.611054e+00 -1.034955e+00 0.000000e+00
      vertex -2.750000e+00 9.000000e-01 0.000000e+00
      vertex -1.611054e+00 -5.349546e-01 0.000000e+00
    endloop
  endfacet
  facet normal 0.000000e+00 0.000000e+00 -1.000000e+00
    outer loop
      vertex 6.546120e-01 -4.028808e-02 0.000000e+00
      vertex -4.000000e-01 2.050000e+00 0.000000e+00
      vertex 2.750000e+00 7.000000e-01 0.000000e+00
    endloop
  endfacet
  facet normal -0.000000e+00 0.000000e+00 -1.000000e+00
    outer loop
      vertex 1.546120e-01 -5.402881e-01 0.000000e+00
      vertex -1.111054e+00 -1.034955e+00 0.000000e+00
      vertex -1.111054e+00 -5.349546e-01 0.000000e+00
    endloop
  endfacet
  facet normal 0.000000e+00 0.000000e+00 -1.000000e+00
    outer loop
      vertex -1.111054e+00 -5.349546e-01 0.000000e+00
      vertex -1.611054e+00 -5.349546e-01 0.000000e+00
      vertex -2.750000e+00 9.000000e-01 0.000000e+00
    endloop
  endfacet
  facet normal 0.000000e+00 0.000000e+00 -1.000000e+00
    outer loop
      vertex 6.546120e-01 -5.402881e-01 0.000000e+00
      vertex 6.546120e-01 -4.028808e-02 0.000000e+00
      vertex 2.750000e+00 7.000000e-01 0.000000e+00
    endloop
  endfacet
  facet normal 0.000000e+00 0.000000e+00 -1.000000e+00
    outer loop
      vertex -4.000000e-01 2.050000e+00 0.000000e+00
      vertex -1.111054e+00 -5.349546e-01 0.000000e+00
      vertex -2.750000e+00 9.000000e-01 0.000000e+00
    endloop
  endfacet
  facet normal 0.000000e+00 0.000000e+00 -1.000000e+00
    outer loop
      vertex 6.546120e-01 -5.402881e-01 0.000000e+00
      vertex 2.750000e+00 7.000000e-01 0.000000e+00
      vertex 1.600000e+00 -2.250000e+00 0.000000e+00
    endloop
  endfacet
  facet normal 0.000000e+00 0.000000e+00 -1.000000e+00
    outer loop
      vertex -1.111054e+00 -1.034955e+00 0.000000e+00
      vertex 1.546120e-01 -5.402881e-01 0.000000e+00
      vertex 1.600000e+00 -2.250000e+00 0.000000e+00
    endloop
  endfacet
  facet normal 0.000000e+00 0.000000e+00 -1.000000e+00
    outer loop
      vertex 1.546120e-01 -5.402881e-01 0.000000e+00
      vertex 6.546120e-01 -5.402881e-01 0.000000e+00
      vertex 1.600000e+00 -2.250000e+00 0.000000e+00
    endloop
  endfacet
endsolid floor_0F
solid Vent_0F-3
  facet normal 0.000000e+00 0.000000e+00 1.000000e+00
    outer loop
      vertex 1.445382e+00 -3.204231e-01 2.200000e+00
      vertex 1.445382e+00 -8.204231e-01 2.200000e+00
      vertex 1.945382e+00 -8.204231e-01 2.200000e+00
    endloop
  endfacet
  facet normal 0.000000e+00 -0.000000e+00 1.000000e+00
    outer loop
      vertex 1.945382e+00 -8.204231e-01 2.200000e+00
      vertex 1.945382e+00 -3.204231e-01 2.200000e+00
      vertex 1.445382e+00 -3.204231e-01 2.200000e+00
    endloop
  endfacet
endsolid Vent_0F-3
solid ceil_0F
  facet normal 0.000000e+00 0.000000e+00 1.000000e+00
    outer loop
      vertex -4.000000e-01 2.050000e+00 2.200000e+00
      vertex -2.750000e+00 9.000000e-01 2.200000e+00
      vertex 1.445382e+00 -3.204231e-01 2.200000e+00
    endloop
  endfacet
  facet normal 0.000000e+00 -0.000000e+00 1.000000e+00
    outer loop
      vertex 1.445382e+00 -8.204231e-01 2.200000e+00
      vertex 1.445382e+00 -3.204231e-01 2.200000e+00
      vertex -2.350000e+00 -2.300000e+00 2.200000e+00
    endloop
  endfacet
  facet normal 0.000000e+00 0.000000e+00 1.000000e+00
    outer loop
      vertex -2.750000e+00 9.000000e-01 2.200000e+00
      vertex -2.350000e+00 -2.300000e+00 2.200000e+00
      vertex 1.445382e+00 -3.204231e-01 2.200000e+00
    endloop
  endfacet
  facet normal 0.000000e+00 0.000000e+00 1.000000e+00
    outer loop
      vertex -4.000000e-01 2.050000e+00 2.200000e+00
      vertex 1.445382e+00 -3.204231e-01 2.200000e+00
      vertex 2.750000e+00 7.000000e-01 2.200000e+00
    endloop
  endfacet
  facet normal 0.000000e+00 0.000000e+00 1.000000e+00
    outer loop
      vertex 1.600000e+00 -2.250000e+00 2.200000e+00
      vertex 1.445382e+00 -8.204231e-01 2.200000e+00
      vertex -2.350000e+00 -2.300000e+00 2.200000e+00
    endloop
  endfacet
  facet normal 0.000000e+00 -0.000000e+00 1.000000e+00
    outer loop
      vertex 1.945382e+00 -3.204231e-01 2.200000e+00
      vertex 2.750000e+00 7.000000e-01 2.200000e+00
      vertex 1.445382e+00 -3.204231e-01 2.200000e+00
    endloop
  endfacet
  facet normal 0.000000e+00 0.000000e+00 1.000000e+00
    outer loop
      vertex 1.945382e+00 -8.204231e-01 2.200000e+00
      vertex 1.445382e+00 -8.204231e-01 2.200000e+00
      vertex 1.600000e+00 -2.250000e+00 2.200000e+00
    endloop
  endfacet
  facet normal 0.000000e+00 0.000000e+00 1.000000e+00
    outer loop
      vertex 2.750000e+00 7.000000e-01 2.200000e+00
      vertex 1.945382e+00 -3.204231e-01 2.200000e+00
      vertex 1.945382e+00 -8.204231e-01 2.200000e+00
    endloop
  endfacet
  facet normal -0.000000e+00 0.000000e+00 1.000000e+00
    outer loop
      vertex 1.945382e+00 -8.204231e-01 2.200000e+00
      vertex 1.600000e+00 -2.250000e+00 2.200000e+00
      vertex 2.750000e+00 7.000000e-01 2.200000e+00
    endloop
  endfacet
endsolid ceil_0F
solid wall_1F_1
  facet normal 1.265721e-02 -9.999199e-01 0.000000e+00
    outer loop
      vertex 1.600000e+00 -2.250000e+00 4.750000e+00
      vertex -2.350000e+00 -2.300000e+00 4.750000e+00
      vertex -2.350000e+00 -2.300000e+00 2.550000e+00
    endloop
  endfacet
  facet normal 1.265721e-02 -9.999199e-01 0.000000e+00
    outer loop
      vertex -2.350000e+00 -2.300000e+00 2.550000e+00
      vertex 1.600000e+00 -2.250000e+00 2.550000e+00
      vertex 1.600000e+00 -2.250000e+00 4.750000e+00
    endloop
  endfacet
endsolid wall_1F_1
solid wall_1F_2
  facet normal 9.317080e-01 -3.632082e-01 0.000000e+00
    outer loop
      vertex 2.750000e+00 7.000000e-01 4.750000e+00
      vertex 1.600000e+00 -2.250000e+00 4.750000e+00
      vertex 1.600000e+00 -2.250000e+00 2.550000e+00
    endloop
  endfacet
  facet normal 9.317080e-01 -3.632082e-01 0.000000e+00
    outer loop
      vertex 1.600000e+00 -2.250000e+00 2.550000e+00
      vertex 2.750000e+00 7.000000e-01 2.550000e+00
      vertex 2.750000e+00 7.000000e-01 4.750000e+00
    endloop
  endfacet
endsolid wall_1F_2
solid wall_1F_3
  facet normal 3.939193e-01 9.191450e-01 0.000000e+00
    outer loop
      vertex -4.000000e-01 2.050000e+00 4.750000e+00
      vertex 2.750000e+00 7.000000e-01 4.750000e+00
      vertex 2.750000e+00 7.000000e-01 2.550000e+00
    endloop
  endfacet
  facet normal 3.939193e-01 9.191450e-01 0.000000e+00
    outer loop
      vertex 2.750000e+00 7.000000e-01 2.550000e+00
      vertex -4.000000e-01 2.050000e+00 2.550000e+00
      vertex -4.000000e-01 2.050000e+00 4.750000e+00
    endloop
  endfacet
endsolid wall_1F_3
solid wall_1F_4
  facet normal -4.395529e-01 8.982167e-01 0.000000e+00
    outer loop
      vertex -2.750000e+00 9.000000e-01 4.750000e+00
      vertex -4.000000e-01 2.050000e+00 4.750000e+00
      vertex -4.000000e-01 2.050000e+00 2.550000e+00
    endloop
  endfacet
  facet normal -4.395529e-01 8.982167e-01 0.000000e+00
    outer loop
      vertex -4.000000e-01 2.050000e+00 2.550000e+00
      vertex -2.750000e+00 9.000000e-01 2.550000e+00
      vertex -2.750000e+00 9.000000e-01 4.750000e+00
    endloop
  endfacet
endsolid wall_1F_4
solid wall_1F_5
  facet normal -9.922779e-01 -1.240347e-01 0.000000e+00
    outer loop
      vertex -2.350000e+00 -2.300000e+00 4.750000e+00
      vertex -2.750000e+00 9.000000e-01 4.750000e+00
      vertex -2.750000e+00 9.000000e-01 2.550000e+00
    endloop
  endfacet
  facet normal -9.922779e-01 -1.240347e-01 0.000000e+00
    outer loop
      vertex -2.750000e+00 9.000000e-01 2.550000e+00
      vertex -2.350000e+00 -2.300000e+00 2.550000e+00
      vertex -2.350000e+00 -2.300000e+00 4.750000e+00
    endloop
  endfacet
endsolid wall_1F_5
solid floor_1F
  facet normal 0.000000e+00 0.000000e+00 -1.000000e+00
    outer loop
      vertex -2.350000e+00 -2.300000e+00 2.550000e+00
      vertex -2.750000e+00 9.000000e-01 2.550000e+00
      vertex -4.000000e-01 2.050000e+00 2.550000e+00
    endloop
  endfacet
  facet normal 0.000000e+00 0.000000e+00 -1.000000e+00
    outer loop
      vertex -4.000000e-01 2.050000e+00 2.550000e+00
      vertex 2.750000e+00 7.000000e-01 2.550000e+00
      vertex 1.600000e+00 -2.250000e+00 2.550000e+00
    endloop
  endfacet
  facet normal -0.000000e+00 0.000000e+00 -1.000000e+00
    outer loop
      vertex 1.600000e+00 -2.250000e+00 2.550000e+00
      vertex -2.350000e+00 -2.300000e+00 2.550000e+00
      vertex -4.000000e-01 2.050000e+00 2.550000e+00
    endloop
  endfacet
endsolid floor_1F
solid Vent_1F-1
  facet normal 0.000000e+00 0.000000e+00 1.000000e+00
    outer loop
      vertex -2.173496e+00 -3.299512e-01 4.750000e+00
      vertex -2.173496e+00 -8.299512e-01 4.750000e+00
      vertex -1.673496e+00 -8.299512e-01 4.750000e+00
    endloop
  endfacet
  facet normal 0.000000e+00 -0.000000e+00 1.000000e+00
    outer loop
      vertex -1.673496e+00 -8.299512e-01 4.750000e+00
      vertex -1.673496e+00 -3.299512e-01 4.750000e+00
      vertex -2.173496e+00 -3.299512e-01 4.750000e+00
    endloop
  endfacet
endsolid Vent_1F-1
solid ceil_1F
  facet normal 0.000000e+00 0.000000e+00 1.000000e+00
    outer loop
      vertex 2.750000e+00 7.000000e-01 4.750000e+00
      vertex -4.000000e-01 2.050000e+00 4.750000e+00
      vertex -1.673496e+00 -3.299512e-01 4.750000e+00
    endloop
  endfacet
  facet normal 0.000000e+00 0.000000e+00 1.000000e+00
    outer loop
      vertex -2.350000e+00 -2.300000e+00 4.750000e+00
      vertex 1.600000e+00 -2.250000e+00 4.750000e+00
      vertex -1.673496e+00 -8.299512e-01 4.750000e+00
    endloop
  endfacet
  facet normal 0.000000e+00 0.000000e+00 1.000000e+00
    outer loop
      vertex -1.673496e+00 -8.299512e-01 4.750000e+00
      vertex -2.173496e+00 -8.299512e-01 4.750000e+00
      vertex -2.350000e+00 -2.300000e+00 4.750000e+00
    endloop
  endfacet
  facet normal 0.000000e+00 -0.000000e+00 1.000000e+00
    outer loop
      vertex -2.350000e+00 -2.300000e+00 4.750000e+00
      vertex -2.173496e+00 -8.299512e-01 4.750000e+00
      vertex -2.750000e+00 9.000000e-01 4.750000e+00
    endloop
  endfacet
  facet normal -0.000000e+00 0.000000e+00 1.000000e+00
    outer loop
      vertex -1.673496e+00 -8.299512e-01 4.750000e+00
      vertex 1.600000e+00 -2.250000e+00 4.750000e+00
      vertex -1.673496e+00 -3.299512e-01 4.750000e+00
    endloop
  endfacet
  facet normal 0.000000e+00 0.000000e+00 1.000000e+00
    outer loop
      vertex -2.173496e+00 -3.299512e-01 4.750000e+00
      vertex -2.750000e+00 9.000000e-01 4.750000e+00
      vertex -2.173496e+00 -8.299512e-01 4.750000e+00
    endloop
  endfacet
  facet normal 0.000000e+00 0.000000e+00 1.000000e+00
    outer loop
      vertex 2.750000e+00 7.000000e-01 4.750000e+00
      vertex -1.673496e+00 -3.299512e-01 4.750000e+00
      vertex 1.600000e+00 -2.250000e+00 4.750000e+00
    endloop
  endfacet
  facet normal 0.000000e+00 0.000000e+00 1.000000e+00
    outer loop
      vertex -2.750000e+00 9.000000e-01 4.750000e+00
      vertex -2.173496e+00 -3.299512e-01 4.750000e+00
      vertex -1.673496e+00 -3.299512e-01 4.750000e+00
    endloop
  endfacet
  facet normal -0.000000e+00 0.000000e+00 1.000000e+00
    outer loop
      vertex -2.750000e+00 9.000000e-01 4.750000e+00
      vertex -1.673496e+00 -3.299512e-01 4.750000e+00
      vertex -4.000000e-01 2.050000e+00 4.750000e+00
    endloop
  endfacet
endsolid ceil_1F
